<?xml version="1.0" standalone="no"?>
<!DOCTYPE svg PUBLIC "-//W3C//DTD SVG 20010904//EN"
 "http://www.w3.org/TR/2001/REC-SVG-20010904/DTD/svg10.dtd">
<svg version="1.0" xmlns="http://www.w3.org/2000/svg"
 width="968.000000pt" height="968.000000pt" viewBox="0 0 968.000000 968.000000"
 preserveAspectRatio="xMidYMid meet">
<metadata>
Created by potrace 1.14, written by Peter Selinger 2001-2017
</metadata>
<g transform="translate(0.000000,968.000000) scale(0.100000,-0.100000)"
fill="#000000" stroke="none">
<path d="M1340 9003 c-57 -29 -161 -161 -207 -265 -9 -21 -20 -38 -25 -38 -4
0 -8 -4 -8 -9 0 -5 -25 -52 -55 -106 -30 -53 -55 -100 -55 -105 0 -5 -4 -10
-8 -12 -5 -1 -28 -39 -53 -83 -24 -44 -48 -88 -54 -97 -5 -9 -30 -52 -55 -95
-24 -43 -52 -91 -62 -108 -10 -16 -27 -48 -39 -70 -12 -22 -24 -42 -28 -45 -3
-3 -14 -21 -23 -40 -25 -50 -52 -94 -60 -98 -5 -2 -8 -8 -8 -13 0 -10 -173
-313 -334 -584 -115 -194 -115 -194 -166 -295 -46 -92 -79 -168 -83 -195 -1
-11 -6 -25 -9 -31 -4 -5 -6 -42 -5 -81 2 -65 8 -81 67 -198 35 -70 74 -143 87
-162 13 -18 23 -36 23 -39 0 -3 16 -30 35 -60 19 -30 35 -56 35 -59 0 -2 14
-28 31 -57 29 -48 45 -76 99 -173 9 -17 49 -86 89 -153 39 -68 71 -125 71
-127 0 -2 33 -59 73 -127 40 -68 81 -139 90 -158 10 -19 27 -48 37 -65 11 -16
23 -37 27 -45 4 -8 23 -42 43 -75 19 -33 47 -81 60 -107 14 -27 28 -48 32 -48
5 0 8 -6 8 -14 0 -7 9 -25 20 -38 10 -14 17 -28 14 -30 -2 -3 2 -11 11 -18 8
-7 15 -16 15 -20 0 -9 104 -189 120 -207 6 -7 9 -13 6 -13 -5 0 58 -108 74
-127 5 -7 10 -15 10 -18 0 -5 102 -185 147 -260 7 -11 16 -29 22 -40 5 -11 20
-36 32 -55 13 -19 31 -48 39 -65 8 -16 26 -48 39 -70 31 -48 53 -88 77 -135
10 -19 25 -46 35 -60 9 -14 30 -50 47 -80 16 -30 62 -111 102 -180 40 -69 84
-145 98 -170 14 -25 30 -48 36 -52 6 -4 8 -8 3 -8 -4 0 3 -17 16 -37 13 -21
35 -59 49 -84 45 -80 53 -94 58 -99 6 -6 50 -86 65 -117 5 -13 13 -23 18 -23
4 0 7 -4 7 -9 0 -9 53 -106 88 -161 9 -14 15 -28 14 -32 -1 -5 3 -8 8 -8 6 0
10 -4 10 -9 0 -4 23 -48 51 -97 29 -49 63 -109 77 -134 13 -25 28 -49 32 -55
8 -11 45 -77 94 -165 16 -30 33 -57 38 -58 4 -2 8 -7 8 -12 0 -4 49 -93 108
-197 194 -335 379 -657 400 -693 11 -19 33 -57 48 -85 14 -27 35 -62 45 -77
11 -14 19 -31 19 -37 0 -6 5 -11 10 -11 6 0 10 -5 10 -10 0 -9 108 -201 165
-294 31 -50 104 -123 140 -140 29 -14 179 -16 1387 -16 1270 0 1355 1 1385 18
46 25 123 101 123 121 0 5 4 11 9 13 8 3 143 228 179 298 7 14 18 34 25 45 7
11 46 81 87 155 41 74 77 137 80 140 4 3 13 20 21 38 8 17 18 32 22 32 5 0 6
4 2 9 -3 5 2 16 10 24 8 9 15 20 15 25 0 5 7 15 15 22 9 7 13 15 10 18 -3 3
-1 10 4 16 15 18 131 225 133 238 2 9 -287 12 -1312 14 -723 1 -1326 4 -1339
7 -53 14 -108 49 -141 92 -19 25 -40 51 -46 58 -21 24 -114 169 -114 178 0 5
-4 9 -10 9 -5 0 -10 4 -10 10 0 5 -21 44 -46 87 -25 43 -60 103 -76 133 -47
85 -73 132 -95 170 -11 20 -39 71 -63 115 -23 44 -50 88 -59 99 -9 10 -14 19
-12 20 3 1 -21 46 -74 134 -6 9 -30 53 -54 97 -25 44 -47 82 -50 85 -4 3 -19
30 -35 60 -16 30 -35 62 -42 71 -8 8 -14 19 -14 23 0 4 -31 60 -69 124 -69
118 -93 160 -139 242 -13 25 -32 53 -41 64 -9 10 -14 19 -12 20 3 0 -2 12 -11
26 -46 75 -168 293 -168 301 0 5 -4 9 -10 9 -5 0 -10 4 -10 9 0 5 -22 47 -49
93 -27 45 -60 103 -73 128 -13 25 -25 47 -28 50 -3 3 -17 26 -30 53 -14 26
-28 47 -32 47 -5 0 -8 9 -8 19 0 11 -4 21 -8 23 -5 2 -22 28 -39 58 -35 65
-169 298 -183 320 -6 8 -14 24 -20 35 -5 11 -27 49 -49 85 -22 36 -50 85 -63
110 -13 25 -25 47 -28 50 -3 3 -11 16 -18 29 -27 47 -52 92 -71 124 -74 128
-287 498 -301 523 -10 17 -24 42 -32 55 -7 13 -15 26 -18 29 -3 3 -14 23 -25
45 -11 22 -23 42 -26 45 -3 3 -8 10 -10 15 -2 6 -33 61 -69 123 -86 149 -79
137 -130 222 -106 175 -125 254 -78 329 13 20 32 54 43 76 11 22 22 42 25 45
4 4 18 28 64 115 6 11 13 22 16 25 3 3 14 23 26 45 11 22 31 58 44 80 12 22
74 132 137 245 182 326 220 375 311 407 43 15 153 17 1252 18 663 0 1228 -3
1255 -8 117 -20 162 -69 326 -354 93 -162 181 -314 210 -361 9 -15 25 -43 36
-62 11 -19 57 -97 101 -174 45 -76 83 -145 84 -153 3 -13 -158 -15 -1345 -15
l-1347 0 6 -26 c21 -104 111 -286 291 -593 174 -295 172 -292 184 -319 5 -13
13 -27 17 -30 4 -3 14 -19 23 -35 44 -82 54 -100 60 -105 3 -3 22 -29 42 -59
21 -29 37 -51 37 -48 0 4 11 -4 25 -17 55 -51 20 -50 1365 -51 690 0 1281 3
1313 7 87 12 142 48 197 130 14 21 29 38 33 38 5 0 6 4 3 9 -3 4 3 16 14 26
11 10 20 22 20 26 0 5 57 102 127 216 138 227 155 256 176 293 8 14 52 90 99
170 99 172 126 227 137 284 9 49 -8 147 -35 197 -10 19 -18 36 -19 39 0 3 -10
21 -23 41 -12 20 -22 40 -22 44 0 5 -6 16 -14 24 -10 12 -202 342 -339 584 -7
12 -18 27 -24 35 -7 7 -13 17 -13 22 0 4 -18 38 -40 74 -22 36 -40 69 -40 73
0 5 -9 19 -20 33 -11 14 -20 30 -20 35 0 12 939 13 1010 1 25 -4 59 -10 75
-13 17 -2 48 -6 71 -8 50 -3 81 -19 89 -45 3 -11 11 -20 16 -20 5 0 9 -5 9
-10 0 -8 140 -231 167 -266 14 -18 33 -48 45 -74 7 -14 15 -27 19 -30 36 -30
259 -435 259 -471 0 -6 5 -15 11 -22 6 -7 29 -54 53 -105 l42 -92 -71 -143
c-39 -78 -84 -164 -100 -192 -16 -27 -42 -75 -59 -105 -16 -30 -33 -56 -38
-58 -4 -2 -8 -8 -8 -12 0 -8 -130 -240 -181 -325 -10 -16 -27 -46 -37 -65 -10
-19 -51 -91 -90 -159 -40 -68 -72 -126 -72 -130 0 -4 -5 -12 -12 -19 -12 -12
-64 -101 -90 -152 -7 -14 -15 -27 -18 -30 -3 -3 -14 -23 -25 -45 -11 -22 -23
-42 -26 -45 -4 -3 -33 -52 -65 -110 -32 -58 -64 -111 -71 -118 -7 -7 -13 -17
-13 -22 0 -14 -99 -174 -171 -279 -35 -50 -68 -99 -74 -109 -5 -9 -12 -19 -15
-22 -10 -10 -50 -69 -50 -74 0 -3 -7 -14 -14 -23 -8 -10 -23 -28 -33 -40 -13
-16 -33 -24 -68 -27 -27 -3 -66 -8 -85 -11 -19 -3 -57 -8 -85 -11 -27 -3 -601
-7 -1275 -9 -674 -1 -1226 -3 -1227 -4 -2 0 8 -20 21 -43 13 -24 51 -97 86
-163 35 -66 75 -142 90 -170 15 -27 51 -95 80 -150 29 -55 71 -134 93 -175 22
-41 57 -108 79 -149 21 -41 45 -82 53 -91 8 -9 15 -21 15 -26 0 -5 10 -21 23
-35 24 -27 43 -56 54 -79 4 -8 9 -17 12 -20 4 -3 27 -35 51 -72 38 -56 50 -68
75 -69 34 -3 57 -6 65 -9 3 -1 21 -3 40 -5 19 -2 49 -7 65 -11 43 -10 2310
-14 2375 -3 30 5 75 11 100 13 135 15 144 18 167 66 7 14 33 57 58 95 24 39
54 88 66 110 12 22 25 42 29 45 4 3 13 17 21 32 23 44 132 223 140 228 3 3 9
15 13 28 4 12 12 22 17 22 5 0 9 5 9 10 0 6 17 39 39 73 38 60 96 161 363 627
71 124 133 232 138 240 63 106 90 154 90 161 0 5 4 9 8 9 5 0 14 16 22 35 8
19 17 35 22 35 4 0 8 4 8 8 0 5 66 123 146 263 80 140 157 274 171 299 14 25
30 48 35 51 5 3 10 12 11 20 2 8 28 57 59 109 30 52 56 99 56 104 0 5 4 12 9
15 4 3 14 16 21 29 32 58 77 141 114 216 23 44 44 83 47 86 3 3 46 85 96 183
49 97 92 177 96 177 3 0 6 6 6 13 0 6 26 59 57 117 l58 105 -92 180 c-223 435
-303 591 -312 603 -6 6 -7 12 -3 12 5 0 1 8 -7 18 -8 9 -30 44 -48 77 -48 87
-220 386 -239 415 -8 14 -16 27 -16 30 0 3 -8 16 -17 30 -20 31 -192 330 -201
350 -4 8 -16 29 -27 45 -11 17 -26 44 -34 60 -19 39 -96 158 -221 341 -55 81
-104 154 -110 163 -12 19 -33 33 -60 39 -11 3 -640 7 -1398 9 l-1379 4 57
-108 c32 -60 72 -135 90 -168 32 -59 76 -141 163 -305 97 -183 114 -215 124
-227 6 -7 7 -13 2 -13 -5 0 -4 -4 1 -8 6 -4 21 -27 33 -52 13 -25 50 -95 83
-156 l58 -111 -547 1 c-503 1 -552 3 -604 20 -31 10 -72 32 -90 50 -42 39 -98
111 -98 125 0 6 -4 11 -10 11 -5 0 -10 7 -10 15 0 8 -4 15 -10 15 -5 0 -10 7
-10 15 0 8 -4 15 -10 15 -5 0 -10 4 -10 8 0 4 -39 73 -86 152 -48 80 -89 151
-92 160 -3 8 -20 38 -37 65 -17 28 -31 52 -31 55 0 3 -20 39 -44 80 -25 41
-45 77 -45 80 0 4 -61 106 -98 165 -20 33 -89 96 -114 106 -14 5 -602 9 -1406
9 -1281 0 -1385 -2 -1417 -17z"/>
</g>
</svg>
